<?xml version="1.0" encoding="iso-8859-1"?>
<!-- Uploaded to: SVG Repo, www.svgrepo.com, Generator: SVG Repo Mixer Tools -->
<svg height="800px" width="800px" version="1.1" id="Layer_1" xmlns="http://www.w3.org/2000/svg" xmlns:xlink="http://www.w3.org/1999/xlink" viewBox="0 0 512 512" xml:space="preserve">
<circle style="fill:#82B9FF;" cx="256" cy="256" r="256"/>
<path style="fill:#B4B4BE;" d="M1.427,229h509.146c-4.169-39.761-17.472-76.78-37.722-109H39.148
	C18.898,152.22,5.595,189.239,1.427,229z"/>
<path style="fill:#FAB98C;" d="M0.202,248h511.596c-0.593-19.272-3.237-38.028-7.863-56H8.065
	C3.439,209.972,0.795,228.728,0.202,248z"/>
<g>
	<path style="fill:#FFFFFF;" d="M418.931,188.239c-2.202,0-4.282,0.433-6.277,1.062c-6.317-9.081-16.796-15.052-28.697-15.052
		s-22.38,5.971-28.697,15.052c-1.994-0.629-4.075-1.062-6.277-1.062c-11.589,0-20.984,9.395-20.984,20.984h111.915
		C439.915,197.634,430.521,188.239,418.931,188.239z"/>
	<path style="fill:#FFFFFF;" d="M124.713,179.87c-1.664,0-3.236,0.327-4.743,0.803c-4.774-6.862-12.692-11.374-21.685-11.374
		s-16.911,4.512-21.685,11.374c-1.507-0.475-3.079-0.803-4.743-0.803c-8.758,0-15.857,7.1-15.857,15.857h84.57
		C140.57,186.97,133.471,179.87,124.713,179.87z"/>
	<path style="fill:#FFFFFF;" d="M304,197.719c0-8.397-6.797-15.203-15.181-15.203c-1.265,0-2.475,0.2-3.65,0.493
		c-3.961-4.284-9.578-7.008-15.868-7.008c-11.978,0-21.687,9.724-21.687,21.719L304,197.719L304,197.719z"/>
	<path style="fill:#FFFFFF;" d="M439.915,126.163c0-10.779-8.725-19.517-19.489-19.517c-1.625,0-3.178,0.257-4.686,0.632
		c-5.085-5.5-12.296-8.997-20.371-8.997c-10.141,0-19.012,5.431-23.88,13.546c-2.616-1.171-5.507-1.837-8.558-1.837
		c-2.202,0-4.282,0.433-6.277,1.062C350.337,101.97,339.858,96,327.958,96c-11.901,0-22.38,5.97-28.697,15.052
		c-1.994-0.629-4.075-1.062-6.277-1.062c-11.589,0-20.984,9.395-20.984,20.984h111.915c0-1.658-0.212-3.263-0.576-4.811H439.915z"/>
	<path style="fill:#FFFFFF;" d="M136,126.163c0-7.686-6.222-13.918-13.897-13.918c-1.158,0-2.266,0.183-3.342,0.451
		c-3.626-3.922-8.768-6.416-14.526-6.416c-10.964,0-19.853,8.902-19.853,19.882L136,126.163L136,126.163z"/>
	<path style="fill:#FFFFFF;" d="M496,197.719c0-8.397-6.797-15.203-15.181-15.203c-1.265,0-2.475,0.2-3.65,0.493
		c-3.961-4.284-9.578-7.008-15.868-7.008c-11.978,0-21.687,9.724-21.687,21.719L496,197.719L496,197.719z"/>
</g>
<path style="fill:#FFDC50;" d="M0,256c0,5.379,0.221,10.704,0.548,16h510.904c0.327-5.296,0.548-10.621,0.548-16
	s-0.221-10.704-0.548-16H0.548C0.221,245.296,0,250.621,0,256z"/>
<path style="fill:#D7645A;" d="M455.773,416H56.227c46.917,58.503,118.947,96,199.773,96S408.856,474.503,455.773,416z"/>
<path style="fill:#CD554F;" d="M492.8,272L480,240l-16-80c0,0-16-8-32-8s-24,16-24,16s0,48-8,56s-8-32-8-40s-8,0-8,0l-8,40
	l-34.286,48H0.548c1.193,19.33,4.542,38.066,9.79,56h491.325c5.248-17.934,8.598-36.67,9.79-56H492.8z"/>
<path style="fill:#EB785F;" d="M65.137,426.55C90.178,398.548,109.165,365.028,120,328H10.337
	C21.169,365.013,40.102,398.552,65.137,426.55z"/>
<path style="fill:#EB7869;" d="M304,328l86,124c0,0,15-0.26,30.92-0.26c37.948-32.007,66.432-74.836,80.742-123.74H304z"/>
<path style="fill:#D7645A;" d="M360,384l71.292,58.33C449.399,425.287,465,405.66,477.537,384H360z"/>
<g>
	<path style="fill:#EB7869;" d="M400,400l-40-16H34.333c23.255,40.184,57.082,73.463,97.725,96h247.883
		c26.071-14.457,49.325-33.342,68.807-55.626L400,400z"/>
	<path style="fill:#EB7869;" d="M88,312l24-48l8-152c0,0,0-16,24-16c12.649,0,48,16,48,16s17.675-8,24-8c16,0,32,24,32,24l8,96
		l14.333-26.667L280,152h8l16,160H88z"/>
</g>
<path style="fill:#FF9184;" d="M232.597,111.165L240,200c0.434,9.039,3,37.667,16,24l-8-96C248,128,241.472,118.238,232.597,111.165
	z"/>
<path style="fill:#EB7869;" d="M64,320l24-8h216l16.143,10.762c5.167,3.445,9.461,8.045,12.542,13.436L360,384c0,0-216,48-320-8
	L64,320z"/>
<path style="fill:#D7645A;" d="M120,112l21.466,143.104c1.206,8.041-6.152,14.724-14.04,12.752L112,264L120,112z"/>
<path style="fill:#D76450;" d="M256,224c0,0,4.667,46,9.333,46c4.853,0,5-72.667,5-72.667L256,224z"/>
<path style="fill:#FF9184;" d="M210.915,391.826L360,384l-27.315-47.801c-3.081-5.392-7.375-9.992-12.542-13.436L304,312
	c0,0-11.897-141.022-16-160c-2.667-12.333-7.75-6.5-8,0c-1.231,32.004,0,132.048,0,132.048c0,11.514-8.324,21.34-19.681,23.232
	l-20.443,3.407c-7.86,1.31-7.322,12.781,0.627,13.349L274,326.429c12.996,0.928,23.77,10.423,26.325,23.199l0.166,0.829
	c1.921,9.606-4.471,18.902-14.129,20.546L210,384C205.179,384.912,206.013,392.051,210.915,391.826z"/>
<g>
	<path style="fill:#D7645A;" d="M104,280l139.079,7.32c6.098,0.321,9.866,6.791,7.135,12.253l0,0
		c-1.368,2.735-4.103,4.521-7.157,4.674L88,312L104,280z"/>
	<path style="fill:#D7645A;" d="M129.5,388.5c9.833-19.167,139.167-14.833,130.5-41.833c-4.556-14.194-99.5-12.5-135.5-15.167
		S64,320,64,320l-24,56C91.333,399.333,125.111,397.055,129.5,388.5z"/>
	<path style="fill:#D7645A;" d="M435.565,438.208l-388.1-34.044c13.868,19.49,30.374,36.928,49.033,51.836H415.63
		C422.596,450.428,429.221,444.465,435.565,438.208z"/>
</g>
<g>
	<path style="fill:#CD5546;" d="M187.706,270.047c-7.022-2.141-11.225-9.334-10.146-16.596
		c4.719-31.747,18.662-124.245,20.94-124.452c11.267-1.024,10.5,130.25,8.75,139.5C206.494,272.495,196.852,272.836,187.706,270.047
		z"/>
	<path style="fill:#CD5546;" d="M152,264c0.667,7,9.667,11.333,12.667,0.667C175.043,227.772,192,112,192,112
		s-34.92-15.8-47.756-15.983C145.153,125.291,148.491,227.156,152,264z"/>
</g>
<g>
	<path style="fill:#D7645A;" d="M235,273.5c9.562,1.304,12.211-9.788,11.304-19.31l-13.615-142.954
		C227.637,107.192,221.823,104,216,104l3,146C218.634,260.836,224,272,235,273.5z"/>
	<path style="fill:#D7645A;" d="M191.916,271.083l7.097-141.94c-0.171-0.048-0.336-0.159-0.513-0.143
		c-2.278,0.207-16.221,92.705-20.94,124.452c-1.079,7.262,3.124,14.455,10.146,16.596
		C189.112,270.476,190.52,270.804,191.916,271.083z"/>
</g>
</svg>