<?xml version="1.0" encoding="iso-8859-1"?>
<!-- Uploaded to: SVG Repo, www.svgrepo.com, Generator: SVG Repo Mixer Tools -->
<svg version="1.1" id="Layer_1" xmlns="http://www.w3.org/2000/svg" xmlns:xlink="http://www.w3.org/1999/xlink" 
	 viewBox="0 0 512 512" xml:space="preserve">
<circle style="fill:#FEE187;" cx="256" cy="256" r="256"/>
<path style="fill:#FFC61B;" d="M512,256c0-5.229-0.176-10.416-0.484-15.569l-84.849-84.849l-87.528,26.25l-54.694-54.694
	l21.568,64.628l-44.123,13.233l-91.222-91.22l-7.04,18.963l78.152,78.152h0.459l-50.595,8.332l-38.615,7.465l-10.804,199.978
	l83.547,83.547C235.686,511.381,245.77,512,256,512C397.384,512,512,397.384,512,256z"/>
<polygon style="fill:#C14929;" points="284.444,155.582 426.667,155.582 398.222,212.471 426.667,269.36 284.444,269.36 
	256,155.582 "/>
<polygon style="fill:#B54324;" points="270.222,212.471 284.444,269.36 426.667,269.36 398.222,212.471 "/>
<polygon style="fill:#930000;" points="341.333,240.916 284.444,269.36 256,155.582 "/>
<polygon style="fill:#FF7F4F;" points="142.222,127.138 284.444,127.138 341.333,240.916 142.222,240.916 "/>
<polygon style="fill:#D35933;" points="341.333,240.916 312.027,182.303 142.222,182.303 142.222,240.916 "/>
<rect x="142.222" y="113.778" style="fill:#273B7A;" width="28.444" height="312.889"/>
</svg>